<svg xmlns="http://www.w3.org/2000/svg" width="34.798" height="34.8" viewBox="0 0 34.798 34.8"><defs><style>.a{fill:#f90;}</style></defs><g transform="translate(6.87 11.697)"><path class="a" d="M101.752,171.6a.613.613,0,1,0,0,.867A.614.614,0,0,0,101.752,171.6Z" transform="translate(-100.705 -171.42)"/></g><path class="a" d="M34.187,28.556a4.28,4.28,0,0,0-.819-.94l-3.176-2.77a.675.675,0,0,0-.27-.236L28,22.935l-8.89-7.755a2.035,2.035,0,0,0-.6-3.246l.822-.822a2.72,2.72,0,0,0,2.625-.7,2.718,2.718,0,0,0,0-3.845L16.195.8a2.718,2.718,0,0,0-4.547,2.625L3.442,11.628a2.735,2.735,0,0,0-.7-.092A2.718,2.718,0,0,0,.816,16.176l5.767,5.767a2.718,2.718,0,0,0,4.548-2.625l.821-.821a2.039,2.039,0,0,0,3.247.6l9.468,10.879a.683.683,0,0,0,.092.115c.012.012.025.023.038.034l2.821,3.242c.07.083.145.164.223.242a4.043,4.043,0,0,0,2.873,1.2,4.172,4.172,0,0,0,.572-.04,4.113,4.113,0,0,0,3.034-2.1A4.022,4.022,0,0,0,34.187,28.556ZM13.311,1.759a1.359,1.359,0,0,1,1.922,0L21,7.526a1.359,1.359,0,0,1-1.922,1.923L13.311,3.681h0A1.36,1.36,0,0,1,13.311,1.759ZM9.467,20.982a1.361,1.361,0,0,1-1.923,0L1.777,15.215A1.359,1.359,0,0,1,3.7,13.292L9.467,19.06A1.36,1.36,0,0,1,9.467,20.982ZM12.328,16.2l-1.9,1.9L4.66,12.331l7.689-7.69,5.767,5.768-1.9,1.9-.019.018-3.843,3.843Zm2.427,1.418,0,0-.479.479a.68.68,0,0,1-.97-.953l3.861-3.861a.68.68,0,0,1,1.153.488.673.673,0,0,1-.2.48l-.476.476-.01.01Zm1.407.515,1.986-1.986,8.411,7.336L23.491,26.55Zm8.222,9.447,3.2-3.2,1.027.9L25.28,28.606ZM33.135,32A2.765,2.765,0,0,1,31.1,33.415a2.7,2.7,0,0,1-2.3-.77c-.052-.052-.1-.107-.149-.162l-.007-.008-2.473-2.841,3.466-3.466,2.838,2.475.007.006a2.926,2.926,0,0,1,.561.645A2.684,2.684,0,0,1,33.135,32Z" transform="translate(-0.021 -0.001)"/><g transform="translate(8.884 6.938)"><path class="a" d="M132.634,100.887a.613.613,0,0,0-.867,0l-2.6,2.6a.613.613,0,0,0,.867.867l2.6-2.6A.613.613,0,0,0,132.634,100.887Z" transform="translate(-128.985 -100.707)"/></g></svg>