<svg xmlns="http://www.w3.org/2000/svg" width="240.783" height="36.851" viewBox="0 0 240.783 36.851"><defs><style>.a{fill:#029bd7;}.b{fill:#0b89ca;}.c{fill:#1376bc;}.d{fill:#1c63ae;}.e{fill:#0a9a89;}.f{fill:#e31933;}.g{fill:#e31c29;}.h{fill:#e42820;}.i{fill:#f59e0c;}.j{fill:#f9bb08;}.k{fill:#fdda02;}.l{fill:#82bf23;}.m{fill:#58b12f;}.n{fill:#35a638;}.o{fill:#129a42;}.p{fill:#e9481a;}.q{fill:#e7e107;}.r{fill:#2255a4;}.s{fill:#ed6715;}.t{fill:#c8d70f;}.u{fill:#2a4497;}.v{fill:#f18510;}.w{fill:#a5cb19;}.x{fill:#333088;}.y{fill:#422683;}.z{fill:#5a2082;}.aa{fill:#701b81;}.ab{fill:#8a1580;}.ac{fill:#a50f7f;}.ad{fill:#bd097e;}.ae{fill:#d4047e;}.af{fill:#e40277;}.ag{fill:#fff;}</style></defs><g transform="translate(181.796)"><rect class="a" width="2.456" height="2.456" transform="translate(49.158 34.394)"/><rect class="b" width="2.456" height="2.456" transform="translate(51.615 34.394)"/><rect class="c" width="2.456" height="2.456" transform="translate(54.071 34.394)"/><rect class="d" width="2.456" height="2.456" transform="translate(56.527 34.394)"/><rect class="e" width="2.456" height="2.456" transform="translate(46.701 34.394)"/><rect class="f" width="2.456" height="2.456" transform="translate(7.389 34.394)"/><rect class="g" width="2.456" height="2.456" transform="translate(9.845 34.394)"/><rect class="h" width="2.456" height="2.456" transform="translate(12.301 34.394)"/><rect class="i" width="2.456" height="2.456" transform="translate(22.127 34.394)"/><rect class="j" width="2.456" height="2.456" transform="translate(24.583 34.394)"/><rect class="k" width="2.456" height="2.456" transform="translate(27.039 34.394)"/><rect class="l" width="2.456" height="2.456" transform="translate(36.865 34.394)"/><rect class="m" width="2.456" height="2.456" transform="translate(39.321 34.394)"/><rect class="n" width="2.456" height="2.456" transform="translate(41.777 34.394)"/><rect class="o" width="2.456" height="2.456" transform="translate(44.234 34.394)"/><rect class="g" width="2.456" height="2.456" transform="translate(7.392 31.937)"/><rect class="h" width="2.456" height="2.456" transform="translate(9.848 31.937)"/><rect class="p" width="2.456" height="2.456" transform="translate(12.305 31.937)"/><rect class="j" width="2.456" height="2.456" transform="translate(22.13 31.937)"/><rect class="k" width="2.456" height="2.456" transform="translate(24.586 31.937)"/><rect class="q" width="2.456" height="2.456" transform="translate(27.043 31.937)"/><rect class="m" width="2.456" height="2.456" transform="translate(36.868 31.937)"/><rect class="n" width="2.456" height="2.456" transform="translate(39.324 31.937)"/><rect class="o" width="2.456" height="2.456" transform="translate(41.781 31.937)"/><rect class="a" width="2.456" height="2.456" transform="translate(46.705 31.937)"/><rect class="b" width="2.456" height="2.456" transform="translate(49.162 31.937)"/><rect class="c" width="2.456" height="2.456" transform="translate(51.618 31.937)"/><rect class="d" width="2.456" height="2.456" transform="translate(54.074 31.937)"/><rect class="r" width="2.456" height="2.456" transform="translate(56.531 31.937)"/><rect class="e" width="2.456" height="2.456" transform="translate(44.248 31.937)"/><rect class="h" width="2.456" height="2.456" transform="translate(7.384 29.481)"/><rect class="p" width="2.456" height="2.456" transform="translate(9.841 29.481)"/><rect class="s" width="2.456" height="2.456" transform="translate(12.297 29.481)"/><rect class="k" width="2.456" height="2.456" transform="translate(22.122 29.481)"/><rect class="q" width="2.456" height="2.456" transform="translate(24.579 29.481)"/><rect class="t" width="2.456" height="2.456" transform="translate(27.035 29.481)"/><rect class="n" width="2.456" height="2.456" transform="translate(36.86 29.481)"/><rect class="o" width="2.456" height="2.456" transform="translate(39.317 29.481)"/><rect class="a" width="2.456" height="2.456" transform="translate(44.241 29.481)"/><rect class="b" width="2.456" height="2.456" transform="translate(46.698 29.481)"/><rect class="c" width="2.456" height="2.456" transform="translate(49.154 29.481)"/><rect class="d" width="2.456" height="2.456" transform="translate(51.61 29.481)"/><rect class="r" width="2.456" height="2.456" transform="translate(54.067 29.481)"/><rect class="u" width="2.456" height="2.456" transform="translate(56.523 29.481)"/><rect class="e" width="2.456" height="2.456" transform="translate(41.784 29.481)"/><rect class="f" width="2.456" height="2.456" transform="translate(0.008 27.024)"/><rect class="g" width="2.456" height="2.456" transform="translate(2.464 27.024)"/><rect class="h" width="2.456" height="2.456" transform="translate(4.92 27.024)"/><rect class="p" width="2.456" height="2.456" transform="translate(7.377 27.024)"/><rect class="s" width="2.456" height="2.456" transform="translate(9.833 27.024)"/><rect class="v" width="2.456" height="2.456" transform="translate(12.289 27.024)"/><rect class="i" width="2.456" height="2.456" transform="translate(14.746 27.024)"/><rect class="j" width="2.456" height="2.456" transform="translate(17.202 27.024)"/><rect class="k" width="2.456" height="2.456" transform="translate(19.658 27.024)"/><rect class="q" width="2.456" height="2.456" transform="translate(22.115 27.024)"/><rect class="t" width="2.456" height="2.456" transform="translate(24.571 27.024)"/><rect class="w" width="2.456" height="2.456" transform="translate(27.027 27.024)"/><rect class="l" width="2.456" height="2.456" transform="translate(29.484 27.024)"/><rect class="m" width="2.456" height="2.456" transform="translate(31.94 27.024)"/><rect class="n" width="2.456" height="2.456" transform="translate(34.396 27.024)"/><rect class="b" width="2.456" height="2.456" transform="translate(44.234 27.024)"/><rect class="c" width="2.456" height="2.456" transform="translate(46.69 27.024)"/><rect class="d" width="2.456" height="2.456" transform="translate(49.146 27.024)"/><rect class="g" width="2" height="2" transform="translate(0.204 24.851)"/><rect class="h" width="3" height="2" transform="translate(2.204 24.851)"/><rect class="p" width="2" height="2" transform="translate(5.204 24.851)"/><rect class="s" width="3" height="2" transform="translate(7.204 24.851)"/><rect class="v" width="2" height="2" transform="translate(10.204 24.851)"/><rect class="i" width="3" height="2" transform="translate(12.204 24.851)"/><rect class="j" width="2" height="2" transform="translate(15.204 24.851)"/><rect class="k" width="2.456" height="2.456" transform="translate(17.194 24.567)"/><rect class="q" width="2.456" height="2.456" transform="translate(19.651 24.567)"/><rect class="t" width="2.456" height="2.456" transform="translate(22.107 24.567)"/><rect class="w" width="2.456" height="2.456" transform="translate(24.563 24.567)"/><rect class="l" width="2.456" height="2.456" transform="translate(27.02 24.567)"/><rect class="m" width="2.456" height="2.456" transform="translate(29.476 24.567)"/><rect class="n" width="2.456" height="2.456" transform="translate(31.932 24.567)"/><rect class="o" width="2.456" height="2.456" transform="translate(34.389 24.567)"/><rect class="c" width="2.456" height="2.456" transform="translate(44.226 24.567)"/><rect class="d" width="2.456" height="2.456" transform="translate(46.682 24.567)"/><rect class="r" width="2.456" height="2.456" transform="translate(49.139 24.567)"/><rect class="h" width="2.456" height="2.456" transform="translate(0.003 22.111)"/><rect class="p" width="2.456" height="2.456" transform="translate(2.46 22.111)"/><rect class="s" width="2.456" height="2.456" transform="translate(4.916 22.111)"/><rect class="v" width="3" height="3" transform="translate(7.204 21.851)"/><rect class="i" width="2" height="3" transform="translate(10.204 21.851)"/><rect class="j" width="3" height="3" transform="translate(12.204 21.851)"/><rect class="k" width="2" height="3" transform="translate(15.204 21.851)"/><rect class="q" width="2" height="3" transform="translate(17.204 21.851)"/><rect class="t" width="3" height="3" transform="translate(19.204 21.851)"/><rect class="w" width="2" height="3" transform="translate(22.204 21.851)"/><rect class="l" width="3" height="3" transform="translate(24.204 21.851)"/><rect class="m" width="2" height="3" transform="translate(27.204 21.851)"/><rect class="n" width="3" height="3" transform="translate(29.204 21.851)"/><rect class="o" width="2" height="3" transform="translate(32.204 21.851)"/><rect class="d" width="2.456" height="2.456" transform="translate(44.229 22.111)"/><rect class="r" width="2.456" height="2.456" transform="translate(46.686 22.111)"/><rect class="u" width="2.456" height="2.456" transform="translate(49.142 22.111)"/><rect class="e" width="2.456" height="2.456" transform="translate(34.403 22.111)"/><rect class="i" width="2.456" height="2.456" transform="translate(7.365 19.654)"/><rect class="j" width="2.456" height="2.456" transform="translate(9.821 19.654)"/><rect class="k" width="2.456" height="2.456" transform="translate(12.277 19.654)"/><rect class="l" width="2.456" height="2.456" transform="translate(22.103 19.654)"/><rect class="m" width="2.456" height="2.456" transform="translate(24.559 19.654)"/><rect class="n" width="2.456" height="2.456" transform="translate(27.015 19.654)"/><rect class="r" width="2" height="2" transform="translate(44.204 19.851)"/><rect class="u" width="3" height="2" transform="translate(46.204 19.851)"/><rect class="x" width="2" height="2" transform="translate(49.204 19.851)"/><rect class="j" width="2.456" height="2.456" transform="translate(7.379 17.197)"/><rect class="k" width="2.456" height="2.456" transform="translate(9.835 17.197)"/><rect class="q" width="2.456" height="2.456" transform="translate(12.292 17.197)"/><rect class="m" width="2.456" height="2.456" transform="translate(22.117 17.197)"/><rect class="n" width="2.456" height="2.456" transform="translate(24.573 17.197)"/><rect class="o" width="2.456" height="2.456" transform="translate(27.03 17.197)"/><rect class="u" width="2.456" height="2.456" transform="translate(44.236 17.197)"/><rect class="x" width="2.456" height="2.456" transform="translate(46.692 17.197)"/><rect class="y" width="2.456" height="2.456" transform="translate(49.149 17.197)"/><rect class="k" width="2.456" height="2.456" transform="translate(7.382 14.74)"/><rect class="q" width="2.456" height="2.456" transform="translate(9.838 14.74)"/><rect class="t" width="2.456" height="2.456" transform="translate(12.295 14.74)"/><rect class="n" width="2.456" height="2.456" transform="translate(22.12 14.74)"/><rect class="o" width="2.456" height="2.456" transform="translate(24.577 14.74)"/><rect class="x" width="2.456" height="2.456" transform="translate(44.239 14.74)"/><rect class="y" width="2.456" height="2.456" transform="translate(46.696 14.74)"/><rect class="z" width="2.456" height="2.456" transform="translate(49.152 14.74)"/><rect class="e" width="2.456" height="2.456" transform="translate(27.044 14.74)"/><rect class="i" width="2.456" height="2.456" transform="translate(0.016 12.284)"/><rect class="j" width="2.456" height="2.456" transform="translate(2.473 12.284)"/><rect class="k" width="2.456" height="2.456" transform="translate(4.929 12.284)"/><rect class="q" width="2.456" height="2.456" transform="translate(7.385 12.284)"/><rect class="t" width="2.456" height="2.456" transform="translate(9.842 12.284)"/><rect class="w" width="2.456" height="2.456" transform="translate(12.298 12.284)"/><rect class="l" width="2.456" height="2.456" transform="translate(14.754 12.284)"/><rect class="m" width="2.456" height="2.456" transform="translate(17.211 12.284)"/><rect class="n" width="2.456" height="2.456" transform="translate(19.667 12.284)"/><rect class="o" width="2.456" height="2.456" transform="translate(22.123 12.284)"/><rect class="a" width="2.456" height="2.456" transform="translate(27.048 12.284)"/><rect class="b" width="2.456" height="2.456" transform="translate(29.504 12.284)"/><rect class="c" width="2.456" height="2.456" transform="translate(31.961 12.284)"/><rect class="d" width="2.456" height="2.456" transform="translate(34.417 12.284)"/><rect class="y" width="2.456" height="2.456" transform="translate(44.242 12.284)"/><rect class="z" width="2.456" height="2.456" transform="translate(46.699 12.284)"/><rect class="aa" width="2.456" height="2.456" transform="translate(49.155 12.284)"/><rect class="e" width="2.456" height="2.456" transform="translate(24.591 12.284)"/><rect class="j" width="2.456" height="2.456" transform="translate(0.02 9.827)"/><rect class="k" width="2.456" height="2.456" transform="translate(2.476 9.827)"/><rect class="q" width="2.456" height="2.456" transform="translate(4.932 9.827)"/><rect class="t" width="2.456" height="2.456" transform="translate(7.389 9.827)"/><rect class="w" width="2.456" height="2.456" transform="translate(9.845 9.827)"/><rect class="l" width="2.456" height="2.456" transform="translate(12.301 9.827)"/><rect class="m" width="2.456" height="2.456" transform="translate(14.758 9.827)"/><rect class="n" width="2.456" height="2.456" transform="translate(17.214 9.827)"/><rect class="o" width="2.456" height="2.456" transform="translate(19.67 9.827)"/><rect class="a" width="2.456" height="2.456" transform="translate(24.595 9.827)"/><rect class="b" width="2.456" height="2.456" transform="translate(27.051 9.827)"/><rect class="c" width="2.456" height="2.456" transform="translate(29.508 9.827)"/><rect class="d" width="2.456" height="2.456" transform="translate(31.964 9.827)"/><rect class="r" width="2.456" height="2.456" transform="translate(34.42 9.827)"/><rect class="z" width="2.456" height="2.456" transform="translate(44.246 9.827)"/><rect class="aa" width="2.456" height="2.456" transform="translate(46.702 9.827)"/><rect class="ab" width="2.456" height="2.456" transform="translate(49.158 9.827)"/><rect class="e" width="2.456" height="2.456" transform="translate(22.138 9.827)"/><rect class="k" width="2.456" height="2.456" transform="translate(0.023 7.37)"/><rect class="q" width="2.456" height="2.456" transform="translate(2.479 7.37)"/><rect class="t" width="2.456" height="2.456" transform="translate(4.936 7.37)"/><rect class="w" width="2.456" height="2.456" transform="translate(7.392 7.37)"/><rect class="l" width="2.456" height="2.456" transform="translate(9.848 7.37)"/><rect class="m" width="2.456" height="2.456" transform="translate(12.305 7.37)"/><rect class="n" width="2.456" height="2.456" transform="translate(14.761 7.37)"/><rect class="o" width="2.456" height="2.456" transform="translate(17.217 7.37)"/><rect class="a" width="2.456" height="2.456" transform="translate(22.142 7.37)"/><rect class="b" width="2.456" height="2.456" transform="translate(24.598 7.37)"/><rect class="c" width="2.456" height="2.456" transform="translate(27.055 7.37)"/><rect class="d" width="2.456" height="2.456" transform="translate(29.511 7.37)"/><rect class="r" width="2.456" height="2.456" transform="translate(31.967 7.37)"/><rect class="u" width="2.456" height="2.456" transform="translate(34.424 7.37)"/><rect class="aa" width="2.456" height="2.456" transform="translate(44.249 7.37)"/><rect class="ab" width="2.456" height="2.456" transform="translate(46.705 7.37)"/><rect class="ac" width="2.456" height="2.456" transform="translate(49.162 7.37)"/><rect class="e" width="2.456" height="2.456" transform="translate(19.685 7.37)"/><rect class="l" width="2.456" height="2.456" transform="translate(7.395 4.913)"/><rect class="m" width="2.456" height="2.456" transform="translate(9.852 4.913)"/><rect class="n" width="2.456" height="2.456" transform="translate(12.308 4.913)"/><rect class="b" width="2.456" height="2.456" transform="translate(22.145 4.913)"/><rect class="c" width="2.456" height="2.456" transform="translate(24.602 4.913)"/><rect class="d" width="2.456" height="2.456" transform="translate(27.058 4.913)"/><rect class="y" width="2.456" height="2.456" transform="translate(36.883 4.913)"/><rect class="z" width="2.456" height="2.456" transform="translate(39.34 4.913)"/><rect class="aa" width="2.456" height="2.456" transform="translate(41.796 4.913)"/><rect class="ab" width="2.456" height="2.456" transform="translate(44.252 4.913)"/><rect class="ac" width="2.456" height="2.456" transform="translate(46.709 4.913)"/><rect class="ad" width="2.456" height="2.456" transform="translate(49.165 4.913)"/><rect class="m" width="2.456" height="2.456" transform="translate(7.388 2.457)"/><rect class="n" width="2.456" height="2.456" transform="translate(9.844 2.457)"/><rect class="o" width="2.456" height="2.456" transform="translate(12.3 2.457)"/><rect class="c" width="2.456" height="2.456" transform="translate(22.138 2.457)"/><rect class="d" width="2.456" height="2.456" transform="translate(24.594 2.457)"/><rect class="r" width="2.456" height="2.456" transform="translate(27.05 2.457)"/><rect class="z" width="2.456" height="2.456" transform="translate(36.876 2.457)"/><rect class="aa" width="2.456" height="2.456" transform="translate(39.332 2.457)"/><rect class="ab" width="2.456" height="2.456" transform="translate(41.788 2.457)"/><rect class="ac" width="2.456" height="2.456" transform="translate(44.245 2.457)"/><rect class="ad" width="2.456" height="2.456" transform="translate(46.701 2.457)"/><rect class="ae" width="2.456" height="2.456" transform="translate(49.157 2.457)"/><rect class="n" width="2.456" height="2.456" transform="translate(7.391 0)"/><rect class="o" width="2.456" height="2.456" transform="translate(9.847 0)"/><rect class="d" width="2.456" height="2.456" transform="translate(22.141 0)"/><rect class="r" width="2.456" height="2.456" transform="translate(24.597 0)"/><rect class="u" width="2.456" height="2.456" transform="translate(27.054 0)"/><rect class="aa" width="2.456" height="2.456" transform="translate(36.879 0)"/><rect class="ab" width="2.456" height="2.456" transform="translate(39.335 0)"/><rect class="ac" width="2.456" height="2.456" transform="translate(41.792 0)"/><rect class="ad" width="2.456" height="2.456" transform="translate(44.248 0)"/><rect class="ae" width="2.456" height="2.456" transform="translate(46.704 0)"/><rect class="af" width="2.456" height="2.456" transform="translate(49.161 0)"/><rect class="e" width="2.456" height="2.456" transform="translate(12.314 0)"/></g><g transform="translate(0 0.01)"><path class="ag" d="M614.907,2512.862h7.368v-7.368h-22.1v7.368h14.736Z" transform="translate(-452.763 -2505.494)"/><path class="ag" d="M570.179,2535.486v14.736h22.1v7.368h7.368v-14.736h-22.1v-7.368Z" transform="translate(-430.139 -2528.117)"/><path class="ag" d="M577.547,2625.461h-7.368v7.368h22.1v-7.368H577.547Z" transform="translate(-430.139 -2595.989)"/><path class="ag" d="M7.515,2505.494H.147v7.368H14.883v29.472h7.368v-36.841H7.515Z" transform="translate(-0.147 -2505.494)"/><path class="ag" d="M142.218,2512.862v7.368H127.482v-14.736h-7.368v36.841h7.368V2527.6h14.736v14.736h7.368v-36.841h-7.368Z" transform="translate(-90.642 -2505.494)"/><path class="ag" d="M270.073,2512.862v29.472h7.368v-36.841h-7.368Z" transform="translate(-203.76 -2505.494)"/><path class="ag" d="M367.417,2505.494h-7.368v7.368h22.1v-7.368H367.417Z" transform="translate(-271.632 -2505.494)"/><path class="ag" d="M510.008,2512.862v29.472h7.368v-36.841h-7.368Z" transform="translate(-384.75 -2505.494)"/><path class="ag" d="M330.057,2542.854v7.368h22.1v7.368h7.368v-14.736h-22.1v-7.368h-7.368Z" transform="translate(-249.008 -2528.117)"/><path class="ag" d="M337.425,2625.461h-7.368v7.368h22.1v-7.368H337.425Z" transform="translate(-249.008 -2595.989)"/></g></svg>