<svg xmlns="http://www.w3.org/2000/svg" width="215" height="134" viewBox="0 0 215 134"><defs><style>.a{fill:#52af30;}.b{fill:#89c221;}.c{fill:#fcd104;}.d{fill:#f5a30b;}.e{fill:#e7391d;}.f{fill:#e31c2a;}.g{fill:#e3163c;}.h{fill:#e3114c;}.i{fill:#149b41;}.j{fill:#41aa35;}.k{fill:#d0d90d;}.l{fill:#fce801;}.m{fill:#ee7114;}.n{fill:#e8431b;}.o{fill:#e4291f;}.p{fill:#e31a30;}.q{fill:#009cac;}.r{fill:#009a8f;}.s{fill:#009873;}.t{fill:#009558;}.u{fill:#1b9d3f;}.v{fill:#57b12f;}.w{fill:#79bc25;}.x{fill:#b5d015;}.y{fill:#dcdd0a;}.z{fill:#fedf02;}.aa{fill:#ed6a15;}.ab{fill:#e73f1c;}.ac{fill:#00a0d7;}.ad{fill:#009dbb;}.ae{fill:#009b9e;}.af{fill:#009982;}.ag{fill:#009662;}.ah{fill:#009448;}.ai{fill:#30a43a;}.aj{fill:#64b52b;}.ak{fill:#92c51e;}.al{fill:#c6d610;}.am{fill:#f5a10c;}.an{fill:#f07a12;}.ao{fill:#009fcf;}.ap{fill:#009db4;}.aq{fill:#00965a;}.ar{fill:#119a42;}.as{fill:#fee401;}.at{fill:#f9bb07;}.au{fill:#0c82c5;}.av{fill:#019eda;}.aw{fill:#009986;}.ax{fill:#00976b;}.ay{fill:#b9d213;}.az{fill:#e7e107;}.ba{fill:#342a84;}.bb{fill:#293e93;}.bc{fill:#1d5ba8;}.bd{fill:#1372b9;}.be{fill:#088dcd;}.bf{fill:#009fd4;}.bg{fill:#009db5;}.bh{fill:#009b9b;}.bi{fill:#00997f;}.bj{fill:#009660;}.bk{fill:#65b62b;}.bl{fill:#91c41f;}.bm{fill:#41308c;}.bn{fill:#392c87;}.bo{fill:#302e87;}.bp{fill:#24499b;}.bq{fill:#1964af;}.br{fill:#0f7cc1;}.bs{fill:#0398d5;}.bt{fill:#009fc9;}.bu{fill:#009db0;}.bv{fill:#009a91;}.bw{fill:#089745;}.bx{fill:#48ac33;}.by{fill:#3e2e8a;}.bz{fill:#362b86;}.ca{fill:#166cb5;}.cb{fill:#0c84c6;}.cc{fill:#009ba2;}.cd{fill:#009983;}.ce{fill:#009767;}.cf{fill:#019447;}.cg{fill:#2ca33b;}.ch{fill:#5cb32d;}.ci{fill:#4b3492;}.cj{fill:#43308d;}.ck{fill:#1f57a5;}.cl{fill:#009fd2;}.cm{fill:#009b98;}.cn{fill:#009771;}.co{fill:#00944b;}.cp{fill:#179c41;}</style></defs><g transform="translate(-459.803 -1285.874)"><rect class="a" width="14" height="11" transform="translate(487.803 1285.874)"/><rect class="b" width="11" height="11" transform="translate(501.803 1285.874)"/><rect class="c" width="14" height="11" transform="translate(540.803 1285.874)"/><rect class="d" width="11" height="11" transform="translate(554.803 1285.874)"/><rect class="e" width="14" height="11" transform="translate(593.803 1285.874)"/><rect class="f" width="12" height="11" transform="translate(607.803 1285.874)"/><rect class="g" width="13" height="11" transform="translate(619.803 1285.874)"/><rect class="h" width="14" height="11" transform="translate(632.803 1285.874)"/><rect class="i" width="14" height="14" transform="translate(487.803 1296.874)"/><rect class="j" width="11" height="14" transform="translate(501.803 1296.874)"/><rect class="k" width="14" height="14" transform="translate(540.803 1296.874)"/><rect class="l" width="11" height="14" transform="translate(554.803 1296.874)"/><rect class="m" width="14" height="14" transform="translate(593.803 1296.874)"/><rect class="n" width="12" height="14" transform="translate(607.803 1296.874)"/><rect class="o" width="13" height="14" transform="translate(619.803 1296.874)"/><rect class="p" width="14" height="14" transform="translate(632.803 1296.874)"/><rect class="q" width="14" height="14" transform="translate(459.803 1310.874)"/><rect class="r" width="14" height="14" transform="translate(473.803 1310.874)"/><rect class="s" width="14" height="14" transform="translate(487.803 1310.874)"/><rect class="t" width="11" height="14" transform="translate(501.803 1310.874)"/><rect class="u" width="16" height="14" transform="translate(512.803 1310.874)"/><rect class="v" width="12" height="14" transform="translate(528.803 1310.874)"/><rect class="w" width="14" height="14" transform="translate(540.803 1310.874)"/><rect class="x" width="11" height="14" transform="translate(554.803 1310.874)"/><rect class="y" width="17" height="14" transform="translate(565.803 1310.874)"/><rect class="z" width="11" height="14" transform="translate(582.803 1310.874)"/><rect class="aa" width="13" height="14" transform="translate(619.803 1310.874)"/><rect class="ab" width="14" height="14" transform="translate(632.803 1310.874)"/><rect class="ac" width="14" height="12" transform="translate(459.803 1324.874)"/><rect class="ad" width="14" height="12" transform="translate(473.803 1324.874)"/><rect class="ae" width="14" height="12" transform="translate(487.803 1324.874)"/><rect class="af" width="11" height="12" transform="translate(501.803 1324.874)"/><rect class="ag" width="16" height="12" transform="translate(512.803 1324.874)"/><rect class="ah" width="12" height="12" transform="translate(528.803 1324.874)"/><rect class="ai" width="14" height="12" transform="translate(540.803 1324.874)"/><rect class="aj" width="11" height="12" transform="translate(554.803 1324.874)"/><rect class="ak" width="17" height="12" transform="translate(565.803 1324.874)"/><rect class="al" width="11" height="12" transform="translate(582.803 1324.874)"/><rect class="am" width="13" height="12" transform="translate(619.803 1324.874)"/><rect class="an" width="14" height="12" transform="translate(632.803 1324.874)"/><rect class="ao" width="14" height="16" transform="translate(487.803 1336.874)"/><rect class="ap" width="11" height="16" transform="translate(501.803 1336.874)"/><rect class="aq" width="14" height="16" transform="translate(540.803 1336.874)"/><rect class="ar" width="11" height="16" transform="translate(554.803 1336.874)"/><rect class="as" width="13" height="16" transform="translate(619.803 1336.874)"/><rect class="at" width="14" height="16" transform="translate(632.803 1336.874)"/><rect class="au" width="14" height="14" transform="translate(487.803 1352.874)"/><rect class="av" width="11" height="14" transform="translate(501.803 1352.874)"/><rect class="aw" width="14" height="14" transform="translate(540.803 1352.874)"/><rect class="ax" width="11" height="14" transform="translate(554.803 1352.874)"/><rect class="ay" width="13" height="14" transform="translate(619.803 1352.874)"/><rect class="az" width="14" height="14" transform="translate(632.803 1352.874)"/><rect class="ba" width="14" height="14" transform="translate(459.803 1366.874)"/><rect class="bb" width="14" height="14" transform="translate(473.803 1366.874)"/><rect class="bc" width="14" height="14" transform="translate(487.803 1366.874)"/><rect class="bd" width="11" height="14" transform="translate(501.803 1366.874)"/><rect class="be" width="16" height="14" transform="translate(512.803 1366.874)"/><rect class="bf" width="12" height="14" transform="translate(528.803 1366.874)"/><rect class="bg" width="14" height="14" transform="translate(540.803 1366.874)"/><rect class="bh" width="11" height="14" transform="translate(554.803 1366.874)"/><rect class="bi" width="17" height="14" transform="translate(565.803 1366.874)"/><rect class="bj" width="11" height="14" transform="translate(582.803 1366.874)"/><rect class="bk" width="13" height="14" transform="translate(619.803 1366.874)"/><rect class="bl" width="14" height="14" transform="translate(632.803 1366.874)"/><rect class="bm" width="14" height="11" transform="translate(459.803 1380.874)"/><rect class="bn" width="14" height="11" transform="translate(473.803 1380.874)"/><rect class="bo" width="14" height="11" transform="translate(487.803 1380.874)"/><rect class="bp" width="11" height="11" transform="translate(501.803 1380.874)"/><rect class="bq" width="16" height="11" transform="translate(512.803 1380.874)"/><rect class="br" width="12" height="11" transform="translate(528.803 1380.874)"/><rect class="bs" width="14" height="11" transform="translate(540.803 1380.874)"/><rect class="bt" width="11" height="11" transform="translate(554.803 1380.874)"/><rect class="bu" width="17" height="11" transform="translate(565.803 1380.874)"/><rect class="bv" width="11" height="11" transform="translate(582.803 1380.874)"/><rect class="bw" width="13" height="11" transform="translate(619.803 1380.874)"/><rect class="bx" width="14" height="11" transform="translate(632.803 1380.874)"/><rect class="by" width="14" height="14" transform="translate(487.803 1391.874)"/><rect class="bz" width="11" height="14" transform="translate(501.803 1391.874)"/><rect class="ca" width="14" height="14" transform="translate(540.803 1391.874)"/><rect class="cb" width="11" height="14" transform="translate(554.803 1391.874)"/><rect class="cc" width="14" height="14" transform="translate(593.803 1391.874)"/><rect class="cd" width="12" height="14" transform="translate(607.803 1391.874)"/><rect class="ce" width="13" height="14" transform="translate(619.803 1391.874)"/><rect class="cf" width="14" height="14" transform="translate(632.803 1391.874)"/><rect class="cg" width="14" height="14" transform="translate(646.803 1391.874)"/><rect class="ch" width="14" height="14" transform="translate(660.803 1391.874)"/><rect class="ci" width="14" height="14" transform="translate(487.803 1405.874)"/><rect class="cj" width="11" height="14" transform="translate(501.803 1405.874)"/><rect class="bp" width="14" height="14" transform="translate(540.803 1405.874)"/><rect class="ck" width="11" height="14" transform="translate(554.803 1405.874)"/><rect class="cl" width="14" height="14" transform="translate(593.803 1405.874)"/><rect class="ap" width="12" height="14" transform="translate(607.803 1405.874)"/><rect class="cm" width="13" height="14" transform="translate(619.803 1405.874)"/><rect class="cn" width="14" height="14" transform="translate(632.803 1405.874)"/><rect class="co" width="14" height="14" transform="translate(646.803 1405.874)"/><rect class="cp" width="14" height="14" transform="translate(660.803 1405.874)"/></g></svg>