<svg xmlns="http://www.w3.org/2000/svg" width="113.632" height="115.417" viewBox="0 0 113.632 115.417"><defs><style>.a{fill:#937de2;}.b{fill:#7570d6;}.c{fill:#fdd7bd;}.d{fill:#87dbff;}.e{fill:#6fc7ff;}.f{fill:#fac5aa;}</style></defs><path class="a" d="M109.285,107.191A50.412,50.412,0,1,1,58.872,56.777,50.413,50.413,0,0,1,109.285,107.191Zm0,0" transform="translate(-6.666 -43.978)"/><path class="b" d="M205.163,56.777a50.846,50.846,0,0,0-7.835.607,50.418,50.418,0,0,1,0,99.61,50.414,50.414,0,1,0,7.831-100.216Zm0,0" transform="translate(-152.958 -43.978)"/><path class="c" d="M249.444,66.455,220.656,85.518a9.8,9.8,0,0,1-6.964,1.509,9.836,9.836,0,0,0-6.98,1.506l-3.852,2.553-21.575-31.8,5.293-22.867a23.858,23.858,0,0,0-3.352-18.56,5.706,5.706,0,0,1,8.729-7.248l3.429,3.321a36.659,36.659,0,0,1,8.847,13.561l1.86,5.006,19.148-12.651a6.529,6.529,0,0,1,9.148,1.993,6.616,6.616,0,0,1-2.051,8.969.072.072,0,0,0-.026.091.073.073,0,0,0,.093.036,6.469,6.469,0,0,1,2.334-.433,6.526,6.526,0,0,1,6.411,7.8,6.674,6.674,0,0,1-2.738,4.135.14.14,0,0,0-.036.194,0,0,0,0,0,.005,0,.137.137,0,0,0,.184.036,6.693,6.693,0,0,1,1.584-.187,6.883,6.883,0,0,1,3.683,1.067,6.415,6.415,0,0,1,1.9,1.869,6.527,6.527,0,0,1-1.84,9.048c-.074.05-.148.1-.222.148a.1.1,0,0,0-.033.128.061.061,0,0,0,.024.024.1.1,0,0,0,.129-.005,6.393,6.393,0,0,1,5.54.713,6.629,6.629,0,0,1,1.95,1.934A6.531,6.531,0,0,1,249.444,66.455Zm0,0" transform="translate(-140.532 -6.971)"/><path class="d" d="M70.9,254.9l-12.144,8.042L41.221,274.557a50.466,50.466,0,0,1-30.659-39.663L30.91,221.42l12.386-8.2a3.1,3.1,0,0,1,4.295.875l24.183,36.514A3.1,3.1,0,0,1,70.9,254.9Zm0,0" transform="translate(-8.294 -164.754)"/><path class="e" d="M140.812,254.9l-12.144,8.042L100.824,221.42l12.386-8.2a3.1,3.1,0,0,1,4.295.875l24.183,36.514A3.1,3.1,0,0,1,140.812,254.9Zm0,0" transform="translate(-78.209 -164.754)"/><g transform="translate(84.226 23.531)"><path class="f" d="M387.67,105.435l-9.579,5.126a3.1,3.1,0,0,1-3.958-.89l7.552-4.886a.072.072,0,0,0,.093.036,6.468,6.468,0,0,1,2.333-.433A6.575,6.575,0,0,1,387.67,105.435Zm0,0" transform="translate(-374.133 -104.387)"/><path class="f" d="M412.938,158.595l-9.37,5.01a3.1,3.1,0,0,1-3.958-.888l7.552-4.886.326-.153a.137.137,0,0,0,.184.036,6.7,6.7,0,0,1,1.584-.187A6.87,6.87,0,0,1,412.938,158.595Zm0,0" transform="translate(-393.866 -145.548)"/><path class="f" d="M441.183,211.555l-8.254,4.415a3.1,3.1,0,0,1-3.957-.89l6.542-4.233a.1.1,0,0,0,.129-.005A6.393,6.393,0,0,1,441.183,211.555Zm0,0" transform="translate(-416.61 -186.585)"/></g><path d="M112.746,49.445a8.267,8.267,0,0,0-5.12-3.524,8.314,8.314,0,0,0-5.545-11.985,8.334,8.334,0,0,0-.431-8.469,8.26,8.26,0,0,0-5.12-3.524,8.323,8.323,0,0,0-11.964-10.81L76.281,16.62a51.78,51.78,0,0,0-13.99-4.735,38.471,38.471,0,0,0-5.339-6.459L53.523,2.1a7.5,7.5,0,0,0-11.475,9.527q.135.2.265.411a52.208,52.208,0,1,0,59.509,68.9,1.794,1.794,0,1,0-3.375-1.219,48.683,48.683,0,0,1-61.093,29.629l14.6-9.669,0,0,0,0L64.1,91.646h0a4.9,4.9,0,0,0,1.379-6.783l-.16-.243,2.357-1.561a7.994,7.994,0,0,1,5.7-1.231,11.571,11.571,0,0,0,8.246-1.783L101.167,67.1a48.72,48.72,0,0,1-.661,5.04,1.794,1.794,0,0,0,1.437,2.092,1.751,1.751,0,0,0,.329.031,1.8,1.8,0,0,0,1.762-1.468,52.486,52.486,0,0,0,.858-8.162l5.51-3.649a8.325,8.325,0,0,0,2.344-11.536ZM72.8,18.927l-5.483,3.631-1.08-2.909a38.407,38.407,0,0,0-1.54-3.567A48.174,48.174,0,0,1,72.8,18.927ZM15.967,31.369a48.622,48.622,0,0,1,28.064-16A22.171,22.171,0,0,1,45.149,28.8L40.774,47.7a4.885,4.885,0,0,0-6.263-.73L22.116,55.176h0L4.238,67.015c-.1-1.261-.149-2.532-.149-3.8A48.6,48.6,0,0,1,15.967,31.369ZM62.673,87.824a1.3,1.3,0,0,1-.56.829h0L51.456,95.712,31.674,66.21a1.794,1.794,0,0,0-2.981,2l19.77,29.485L33.247,107.77A48.768,48.768,0,0,1,4.707,70.94L22.6,59.128l2.06,3.073a1.795,1.795,0,0,0,2.982-2L25.6,57.151l10.893-7.19a1.306,1.306,0,0,1,1.809.369L62.483,86.845A1.294,1.294,0,0,1,62.673,87.824Zm47.772-32.841a4.7,4.7,0,0,1-2.026,3.005l-6.3,4.171-.006,0L79.633,77.052a7.99,7.99,0,0,1-5.7,1.231,11.577,11.577,0,0,0-8.246,1.783l-2.357,1.561L43.527,51.721l5.12-22.115A25.785,25.785,0,0,0,46.759,12.68a1.759,1.759,0,0,0-.076-.159,25.386,25.386,0,0,0-1.642-2.872A3.912,3.912,0,0,1,51.025,4.68L54.453,8a35.064,35.064,0,0,1,8.415,12.9l1.867,5.029.011.026.014.035c.013.031.026.059.039.083a1.77,1.77,0,0,0,.123.222,1.793,1.793,0,0,0,2.487.505L86.549,14.125a4.735,4.735,0,1,1,5.229,7.9l-1.662,1.1h0l-3.706,2.455-.014.01c-.021.015-.041.029-.058.043a1.794,1.794,0,0,0,2.054,2.939L92.1,26.113a4.735,4.735,0,0,1,5.226,7.9l-5.37,3.557a1.794,1.794,0,1,0,1.981,2.992l.831-.55,2.876-1.9a4.735,4.735,0,0,1,5.229,7.9l-2.682,1.776-.042.028L97.5,49.556a1.795,1.795,0,1,0,1.981,2.993l.831-.55h0l2.876-1.9a4.734,4.734,0,0,1,7.253,4.89Zm0,0" transform="translate(-0.5 0)"/></svg>