<svg id="Layer_1" data-name="Layer 1" xmlns="http://www.w3.org/2000/svg" viewBox="0 0 157 72"><defs><style>.cls-1{fill:#fff;}.cls-2{fill:#faa819;}.cls-3{fill:#e1312c;}.cls-4{fill:#4fb1b4;}.cls-5{isolation:isolate;}</style></defs><g id="Group_16453" data-name="Group 16453"><path id="Path_1" data-name="Path 1" class="cls-1" d="M21,25a12.87,12.87,0,0,1,3.43,3.27L21,31l-1.3,1.07a7.42,7.42,0,0,0-9-2.66,7.5,7.5,0,0,0-4,4,7.41,7.41,0,0,0-.59,2.9V53.77H.07v-31H6.15V25a13.3,13.3,0,0,1,11.39-1.67A13.45,13.45,0,0,1,21,25Z"/><path id="Path_2" data-name="Path 2" class="cls-1" d="M34.46,22.67V53.83H28.38V22.67Z"/><path id="Path_3" data-name="Path 3" class="cls-1" d="M57.42,39.43A10.19,10.19,0,0,1,58.72,42a8.26,8.26,0,0,1,.41,2.92,8.64,8.64,0,0,1-.88,3.6,10,10,0,0,1-2.19,2.89,9.77,9.77,0,0,1-3.18,1.92A10.25,10.25,0,0,1,49,54a10.7,10.7,0,0,1-5.11-1.48,9.05,9.05,0,0,1-3.45-3.6l5.08-3.54a3.28,3.28,0,0,0,1.3,1.8,3.83,3.83,0,0,0,2.36.74A3.94,3.94,0,0,0,51.9,47a2.76,2.76,0,0,0,1.15-2.27,2.32,2.32,0,0,0,0-.59V44a.36.36,0,0,1-.06-.2.65.65,0,0,0-.06-.21A3.43,3.43,0,0,0,51.34,42a2.32,2.32,0,0,0-.53-.24l.06-.06A19.48,19.48,0,0,0,49,40.76c-.67-.3-1.35-.61-2-.95s-1.37-.69-2-1.06a10.9,10.9,0,0,1-1.89-1.33v-.06l-.18-.17A8.7,8.7,0,0,1,41,34.44a7.22,7.22,0,0,1-.65-3.33,7.93,7.93,0,0,1,.82-3.31,8.52,8.52,0,0,1,2-2.65,9.54,9.54,0,0,1,6.64-2.37A10.44,10.44,0,0,1,54.38,24a8.62,8.62,0,0,1,3.22,3l-5,3.43a3,3,0,0,0-1.15-1.12,3.45,3.45,0,0,0-1.8-.48,3.59,3.59,0,0,0-2.33.65,2.07,2.07,0,0,0-1,1.71,1.18,1.18,0,0,0,0,.42A2.18,2.18,0,0,0,47,32.76a3.64,3.64,0,0,0,1.19.77c.74.43,1.6.87,2.56,1.32s1.94,1,2.93,1.51a9.11,9.11,0,0,1,2.12,1.36l.3.29A11.56,11.56,0,0,1,57.42,39.43Z"/><path id="Path_4" data-name="Path 4" class="cls-1" d="M71.11,22.67V53.83H65V22.67Z"/><path id="Path_5" data-name="Path 5" class="cls-1" d="M108.06,38.31a15.51,15.51,0,0,1-9.5,14.37,15.91,15.91,0,0,1-12.16,0,15.59,15.59,0,0,1-8.3-8.29,15.91,15.91,0,0,1,0-12.16,15.52,15.52,0,0,1,14.38-9.51,15.05,15.05,0,0,1,5.1.86A16.06,16.06,0,0,1,102,26V1.89h6.08V38.31Zm-15.55,9.5A9.47,9.47,0,0,0,102,38.3v-.06a9.24,9.24,0,0,0-.73-3.66,9.75,9.75,0,0,0-2-3,9.51,9.51,0,0,0-13.42,0,10,10,0,0,0-2.06,3,9.28,9.28,0,0,0,0,7.38,10,10,0,0,0,2.06,3,9.58,9.58,0,0,0,3,2,9.45,9.45,0,0,0,3.68.74Z"/><path id="Path_6" data-name="Path 6" class="cls-1" d="M120,22.67V53.83H113.9V22.67Z"/><path id="Path_7" data-name="Path 7" class="cls-1" d="M141.35,22.67a15.18,15.18,0,0,1,6.08,1.21,15.54,15.54,0,0,1,8.29,8.29,15.91,15.91,0,0,1,0,12.16,15.57,15.57,0,0,1-8.29,8.29,15.91,15.91,0,0,1-12.16,0,15.59,15.59,0,0,1-8.3-8.29,15.91,15.91,0,0,1,0-12.16,15.56,15.56,0,0,1,8.3-8.29A15.11,15.11,0,0,1,141.35,22.67Zm0,25.08a9.09,9.09,0,0,0,3.67-.74,9.5,9.5,0,1,0-10.38-15.49,9.85,9.85,0,0,0-2.06,3,9.28,9.28,0,0,0,0,7.38,10,10,0,0,0,2.06,3,9.38,9.38,0,0,0,3,2,9.28,9.28,0,0,0,3.68.75Z"/><circle id="Ellipse_1" data-name="Ellipse 1" class="cls-2" cx="31.42" cy="16.13" r="3.34"/><circle id="Ellipse_2" data-name="Ellipse 2" class="cls-3" cx="68.07" cy="60.29" r="3.34"/><circle id="Ellipse_3" data-name="Ellipse 3" class="cls-4" cx="116.91" cy="16.08" r="3.34"/><g class="cls-5"><path class="cls-1" d="M96.13,69.55A4.1,4.1,0,0,1,94.5,68a4.48,4.48,0,0,1,0-4.48A4.12,4.12,0,0,1,96.13,62a5.17,5.17,0,0,1,4.31-.17,3.94,3.94,0,0,1,1.48,1.1l-1.25,1.15a2.7,2.7,0,0,0-2.11-1,2.75,2.75,0,0,0-1.39.34,2.46,2.46,0,0,0-1,1,3,3,0,0,0,0,2.78,2.37,2.37,0,0,0,1,1,2.76,2.76,0,0,0,1.39.35,2.69,2.69,0,0,0,2.11-1l1.25,1.15a3.94,3.94,0,0,1-1.49,1.12,5,5,0,0,1-2,.38A4.71,4.71,0,0,1,96.13,69.55Z"/><path class="cls-1" d="M104.11,69.64a3.29,3.29,0,0,1-1.27-1.18,3.45,3.45,0,0,1,0-3.44,3.29,3.29,0,0,1,1.27-1.18,3.92,3.92,0,0,1,1.83-.42,3.85,3.85,0,0,1,1.82.42A3.19,3.19,0,0,1,109,65a3.45,3.45,0,0,1,0,3.44,3.19,3.19,0,0,1-1.26,1.18,3.85,3.85,0,0,1-1.82.42A3.92,3.92,0,0,1,104.11,69.64Zm3-1.6a2.07,2.07,0,0,0,0-2.6,1.54,1.54,0,0,0-1.18-.49,1.56,1.56,0,0,0-1.19.49,2,2,0,0,0,0,2.6,1.56,1.56,0,0,0,1.19.49A1.54,1.54,0,0,0,107.12,68Z"/><path class="cls-1" d="M110.72,61.06h1.88V70h-1.88Z"/><path class="cls-1" d="M114.34,61.06h1.87V70h-1.87Z"/><path class="cls-1" d="M124.24,67.27h-4.89a1.56,1.56,0,0,0,.63,1,2,2,0,0,0,1.22.34,2.44,2.44,0,0,0,.89-.15,2,2,0,0,0,.73-.47l1,1.08a3.35,3.35,0,0,1-2.67,1,4.25,4.25,0,0,1-1.93-.42,3.24,3.24,0,0,1-1.3-1.18,3.49,3.49,0,0,1,0-3.43,3.16,3.16,0,0,1,1.24-1.19,3.88,3.88,0,0,1,3.47,0,3.07,3.07,0,0,1,1.2,1.17,3.42,3.42,0,0,1,.44,1.77S124.26,67,124.24,67.27Zm-4.38-2.08a1.51,1.51,0,0,0-.53,1h3.18a1.51,1.51,0,0,0-.53-1,1.56,1.56,0,0,0-1.06-.37A1.6,1.6,0,0,0,119.86,65.19Z"/><path class="cls-1" d="M126.79,69.64a3.27,3.27,0,0,1-1.29-1.18,3.45,3.45,0,0,1,0-3.44,3.27,3.27,0,0,1,1.29-1.18,4,4,0,0,1,1.85-.42,3.6,3.6,0,0,1,1.78.42,2.53,2.53,0,0,1,1.11,1.22l-1.45.78a1.59,1.59,0,0,0-1.45-.89,1.64,1.64,0,0,0-1.21.48,2,2,0,0,0,0,2.62,1.64,1.64,0,0,0,1.21.48,1.58,1.58,0,0,0,1.45-.89l1.45.79a2.58,2.58,0,0,1-1.11,1.2,3.5,3.5,0,0,1-1.78.43A4,4,0,0,1,126.79,69.64Z"/><path class="cls-1" d="M136.87,69.66a2.07,2.07,0,0,1-.67.3,3.41,3.41,0,0,1-.85.1,2.51,2.51,0,0,1-1.78-.58,2.27,2.27,0,0,1-.63-1.73V65.1h-1V63.66h1V62.08h1.87v1.58h1.61V65.1h-1.61v2.62a.86.86,0,0,0,.21.63.78.78,0,0,0,.59.23,1.21,1.21,0,0,0,.76-.24Z"/><path class="cls-1" d="M138,62.31a1,1,0,0,1,0-1.49,1.2,1.2,0,0,1,.84-.3,1.25,1.25,0,0,1,.85.29.93.93,0,0,1,.32.72,1.06,1.06,0,0,1-.32.78,1.34,1.34,0,0,1-1.69,0Zm-.09,1.2h1.87V70h-1.87Z"/><path class="cls-1" d="M142.78,69.64a3.19,3.19,0,0,1-1.26-1.18,3.45,3.45,0,0,1,0-3.44,3.19,3.19,0,0,1,1.26-1.18,4.2,4.2,0,0,1,3.66,0,3.28,3.28,0,0,1,0,5.8,4.2,4.2,0,0,1-3.66,0Zm3-1.6a2,2,0,0,0,0-2.6,1.53,1.53,0,0,0-1.18-.49,1.58,1.58,0,0,0-1.19.49,2.07,2.07,0,0,0,0,2.6,1.58,1.58,0,0,0,1.19.49A1.53,1.53,0,0,0,145.79,68Z"/><path class="cls-1" d="M155.26,64.14a2.86,2.86,0,0,1,.74,2.13V70h-1.87V66.56a1.68,1.68,0,0,0-.34-1.15,1.22,1.22,0,0,0-1-.37,1.5,1.5,0,0,0-1.13.43,1.84,1.84,0,0,0-.42,1.31V70H149.4V63.51h1.79v.76a2.6,2.6,0,0,1,.92-.63,3.19,3.19,0,0,1,1.22-.22A2.63,2.63,0,0,1,155.26,64.14Z"/></g></g></svg>