<svg xmlns="http://www.w3.org/2000/svg" width="20" height="20" viewBox="0 0 20 20"><defs><style>.a{fill:#fff;}</style></defs><g transform="translate(-2.25 -2.25)"><g transform="translate(2.25 15.231)"><path class="a" d="M2.25,27H14.182v1.4H2.25Z" transform="translate(-2.25 -24.193)"/><path class="a" d="M28.125,27h3.509v1.4H28.125Z" transform="translate(-11.634 -24.193)"/><path class="a" d="M25.307,28.093a1.415,1.415,0,0,1-1.4,1.426h0a1.415,1.415,0,0,1-1.4-1.426V23.926A1.415,1.415,0,0,1,23.9,22.5h0a1.415,1.415,0,0,1,1.4,1.426Z" transform="translate(-9.606 -22.5)"/></g><g transform="translate(2.25 8.741)"><path class="a" d="M2.25,16.875H5.759v1.4H2.25Z" transform="translate(-2.25 -14.068)"/><path class="a" d="M14.625,16.875H26.557v1.4H14.625Z" transform="translate(-6.557 -14.068)"/><path class="a" d="M11.807,17.968a1.415,1.415,0,0,1-1.4,1.426h0A1.415,1.415,0,0,1,9,17.968V13.8a1.415,1.415,0,0,1,1.4-1.426h0a1.415,1.415,0,0,1,1.4,1.426Z" transform="translate(-4.702 -12.375)"/></g><g transform="translate(2.25 2.25)"><path class="a" d="M2.25,6.75H14.182v1.4H2.25Z" transform="translate(-2.25 -3.943)"/><path class="a" d="M28.125,6.75h3.509v1.4H28.125Z" transform="translate(-11.634 -3.943)"/><path class="a" d="M25.307,7.843a1.415,1.415,0,0,1-1.4,1.426h0a1.415,1.415,0,0,1-1.4-1.426V3.676A1.415,1.415,0,0,1,23.9,2.25h0a1.415,1.415,0,0,1,1.4,1.426Z" transform="translate(-9.606 -2.25)"/></g></g></svg>