<svg xmlns="http://www.w3.org/2000/svg" width="720.053" height="9.999" viewBox="0 0 720.053 9.999"><defs><style>.a{fill:#e31933;}.b{fill:#e31c29;}.c{fill:#e42820;}.d{fill:#e9481a;}.e{fill:#ed6715;}.f{fill:#f18510;}.g{fill:#f59e0c;}.h{fill:#f9bb08;}.i{fill:#fdda02;}.j{fill:#e7e107;}.k{fill:#c8d70f;}.l{fill:#a5cb19;}.m{fill:#82bf23;}.n{fill:#58b12f;}.o{fill:#35a638;}.p{fill:#129a42;}.q{fill:#029bd7;}.r{fill:#0b89ca;}.s{fill:#1376bc;}.t{fill:#1c63ae;}.u{fill:#2255a4;}.v{fill:#2a4497;}.w{fill:#333088;}.x{fill:#422683;}.y{fill:#5a2082;}.z{fill:#701b81;}.aa{fill:#8a1580;}.ab{fill:#a50f7f;}.ac{fill:#bd097e;}.ad{fill:#d4047e;}.ae{fill:#e40277;}.af{fill:#e40769;}.ag{fill:#e40c5b;}.ah{fill:#e40f50;}.ai{fill:#e31442;}.aj{fill:#0a9a89;}</style></defs><g transform="translate(1359.972 -1595.48)"><rect class="a" width="9.999" height="9.999" transform="translate(-1329.914 1595.48)"/><rect class="b" width="9.999" height="9.999" transform="translate(-1319.915 1595.48)"/><rect class="c" width="9.999" height="9.999" transform="translate(-1309.917 1595.48)"/><rect class="d" width="9.999" height="9.999" transform="translate(-1299.918 1595.48)"/><rect class="e" width="9.999" height="9.999" transform="translate(-1289.92 1595.48)"/><rect class="f" width="9.999" height="9.999" transform="translate(-1279.921 1595.48)"/><rect class="g" width="9.999" height="9.999" transform="translate(-1269.923 1595.48)"/><rect class="h" width="9.999" height="9.999" transform="translate(-1259.924 1595.48)"/><rect class="i" width="9.999" height="9.999" transform="translate(-1249.926 1595.48)"/><rect class="j" width="9.999" height="9.999" transform="translate(-1239.927 1595.48)"/><rect class="k" width="9.999" height="9.999" transform="translate(-1229.929 1595.48)"/><rect class="l" width="9.999" height="9.999" transform="translate(-1219.93 1595.48)"/><rect class="m" width="9.999" height="9.999" transform="translate(-1209.932 1595.48)"/><rect class="n" width="9.999" height="9.999" transform="translate(-1199.933 1595.48)"/><rect class="o" width="9.999" height="9.999" transform="translate(-1189.935 1595.48)"/><rect class="p" width="9.999" height="9.999" transform="translate(-1179.936 1595.48)"/><rect class="q" width="9.999" height="9.999" transform="translate(-799.895 1595.48)"/><rect class="r" width="9.999" height="9.999" transform="translate(-789.897 1595.48)"/><rect class="s" width="9.999" height="9.999" transform="translate(-779.898 1595.48)"/><rect class="t" width="9.999" height="9.999" transform="translate(-769.899 1595.48)"/><rect class="u" width="9.999" height="9.999" transform="translate(-759.901 1595.48)"/><rect class="v" width="9.999" height="9.999" transform="translate(-749.902 1595.48)"/><rect class="w" width="9.999" height="9.999" transform="translate(-739.904 1595.48)"/><rect class="x" width="9.999" height="9.999" transform="translate(-729.905 1595.48)"/><rect class="y" width="9.999" height="9.999" transform="translate(-719.907 1595.48)"/><rect class="z" width="9.999" height="9.999" transform="translate(-709.908 1595.48)"/><rect class="aa" width="9.999" height="9.999" transform="translate(-699.91 1595.48)"/><rect class="ab" width="9.999" height="9.999" transform="translate(-689.911 1595.48)"/><rect class="ac" width="9.999" height="9.999" transform="translate(-679.913 1595.48)"/><rect class="ad" width="9.999" height="9.999" transform="translate(-669.914 1595.48)"/><rect class="ae" width="9.999" height="9.999" transform="translate(-659.916 1595.48)"/><rect class="af" width="9.999" height="9.999" transform="translate(-649.917 1595.48)"/><rect class="ag" width="9.999" height="9.999" transform="translate(-1359.972 1595.48)"/><rect class="ah" width="9.999" height="9.999" transform="translate(-1349.973 1595.48)"/><rect class="ai" width="9.999" height="9.999" transform="translate(-1339.975 1595.48)"/><rect class="aj" width="9.999" height="9.999" transform="translate(-809.898 1595.48)"/><rect class="a" width="9.999" height="9.999" transform="translate(-969.919 1595.48)"/><rect class="b" width="9.999" height="9.999" transform="translate(-959.92 1595.48)"/><rect class="c" width="9.999" height="9.999" transform="translate(-949.922 1595.48)"/><rect class="d" width="9.999" height="9.999" transform="translate(-939.923 1595.48)"/><rect class="e" width="9.999" height="9.999" transform="translate(-929.924 1595.48)"/><rect class="f" width="9.999" height="9.999" transform="translate(-919.926 1595.48)"/><rect class="g" width="9.999" height="9.999" transform="translate(-909.927 1595.48)"/><rect class="h" width="9.999" height="9.999" transform="translate(-899.929 1595.48)"/><rect class="i" width="9.999" height="9.999" transform="translate(-889.93 1595.48)"/><rect class="j" width="9.999" height="9.999" transform="translate(-879.932 1595.48)"/><rect class="k" width="9.999" height="9.999" transform="translate(-869.933 1595.48)"/><rect class="l" width="9.999" height="9.999" transform="translate(-859.935 1595.48)"/><rect class="m" width="9.999" height="9.999" transform="translate(-849.936 1595.48)"/><rect class="n" width="9.999" height="9.999" transform="translate(-839.938 1595.48)"/><rect class="o" width="9.999" height="9.999" transform="translate(-829.939 1595.48)"/><rect class="p" width="9.999" height="9.999" transform="translate(-819.941 1595.48)"/><rect class="q" width="9.999" height="9.999" transform="translate(-1159.953 1595.48)"/><rect class="r" width="9.999" height="9.999" transform="translate(-1149.954 1595.48)"/><rect class="s" width="9.999" height="9.999" transform="translate(-1139.956 1595.48)"/><rect class="t" width="9.999" height="9.999" transform="translate(-1129.957 1595.48)"/><rect class="u" width="9.999" height="9.999" transform="translate(-1119.959 1595.48)"/><rect class="v" width="9.999" height="9.999" transform="translate(-1109.96 1595.48)"/><rect class="w" width="9.999" height="9.999" transform="translate(-1099.962 1595.48)"/><rect class="x" width="9.999" height="9.999" transform="translate(-1089.963 1595.48)"/><rect class="y" width="9.999" height="9.999" transform="translate(-1079.965 1595.48)"/><rect class="z" width="9.999" height="9.999" transform="translate(-1069.966 1595.48)"/><rect class="aa" width="9.999" height="9.999" transform="translate(-1059.968 1595.48)"/><rect class="ab" width="9.999" height="9.999" transform="translate(-1049.969 1595.48)"/><rect class="ac" width="9.999" height="9.999" transform="translate(-1039.971 1595.48)"/><rect class="ad" width="9.999" height="9.999" transform="translate(-1029.972 1595.48)"/><rect class="ae" width="9.999" height="9.999" transform="translate(-1019.974 1595.48)"/><rect class="af" width="9.999" height="9.999" transform="translate(-1009.975 1595.48)"/><rect class="ag" width="9.999" height="9.999" transform="translate(-999.977 1595.48)"/><rect class="ah" width="9.999" height="9.999" transform="translate(-989.978 1595.48)"/><rect class="ai" width="9.999" height="9.999" transform="translate(-979.98 1595.48)"/><rect class="aj" width="9.999" height="9.999" transform="translate(-1169.936 1595.48)"/></g></svg>