<svg xmlns="http://www.w3.org/2000/svg" width="200.745" height="30.723" viewBox="0 0 200.745 30.723"><defs><style>.a{fill:#029bd7;}.b{fill:#0b89ca;}.c{fill:#1376bc;}.d{fill:#1c63ae;}.e{fill:#0a9a89;}.f{fill:#e31933;}.g{fill:#e31c29;}.h{fill:#e42820;}.i{fill:#f59e0c;}.j{fill:#f9bb08;}.k{fill:#fdda02;}.l{fill:#82bf23;}.m{fill:#58b12f;}.n{fill:#35a638;}.o{fill:#129a42;}.p{fill:#e9481a;}.q{fill:#e7e107;}.r{fill:#2255a4;}.s{fill:#ed6715;}.t{fill:#c8d70f;}.u{fill:#2a4497;}.v{fill:#f18510;}.w{fill:#a5cb19;}.x{fill:#333088;}.y{fill:#422683;}.z{fill:#5a2082;}.aa{fill:#701b81;}.ab{fill:#8a1580;}.ac{fill:#a50f7f;}.ad{fill:#bd097e;}.ae{fill:#d4047e;}.af{fill:#e40277;}.ag{fill:#fff;}</style></defs><g transform="translate(151.569)"><rect class="a" width="2.048" height="2.048" transform="translate(40.982 28.675)"/><rect class="b" width="2.048" height="2.048" transform="translate(43.029 28.675)"/><rect class="c" width="2.048" height="2.048" transform="translate(45.077 28.675)"/><rect class="d" width="2.048" height="2.048" transform="translate(47.125 28.675)"/><rect class="e" width="2.048" height="2.048" transform="translate(38.933 28.675)"/><rect class="f" width="2.048" height="2.048" transform="translate(6.157 28.675)"/><rect class="g" width="2.048" height="2.048" transform="translate(8.205 28.675)"/><rect class="h" width="2.048" height="2.048" transform="translate(10.253 28.675)"/><rect class="i" width="2.048" height="2.048" transform="translate(18.445 28.675)"/><rect class="j" width="2.048" height="2.048" transform="translate(20.493 28.675)"/><rect class="k" width="2.048" height="2.048" transform="translate(22.54 28.675)"/><rect class="l" width="2.048" height="2.048" transform="translate(30.732 28.675)"/><rect class="m" width="2.048" height="2.048" transform="translate(32.78 28.675)"/><rect class="n" width="2.048" height="2.048" transform="translate(34.828 28.675)"/><rect class="o" width="2.048" height="2.048" transform="translate(36.876 28.675)"/><rect class="g" width="2.048" height="2.048" transform="translate(6.16 26.627)"/><rect class="h" width="2.048" height="2.048" transform="translate(8.208 26.627)"/><rect class="p" width="2.048" height="2.048" transform="translate(10.256 26.627)"/><rect class="j" width="2.048" height="2.048" transform="translate(18.447 26.627)"/><rect class="k" width="2.048" height="2.048" transform="translate(20.495 26.627)"/><rect class="q" width="2.048" height="2.048" transform="translate(22.543 26.627)"/><rect class="m" width="2.048" height="2.048" transform="translate(30.735 26.627)"/><rect class="n" width="2.048" height="2.048" transform="translate(32.783 26.627)"/><rect class="o" width="2.048" height="2.048" transform="translate(34.831 26.627)"/><rect class="a" width="2.048" height="2.048" transform="translate(38.936 26.627)"/><rect class="b" width="2.048" height="2.048" transform="translate(40.984 26.627)"/><rect class="c" width="2.048" height="2.048" transform="translate(43.032 26.627)"/><rect class="d" width="2.048" height="2.048" transform="translate(45.08 26.627)"/><rect class="r" width="2.048" height="2.048" transform="translate(47.128 26.627)"/><rect class="e" width="2.048" height="2.048" transform="translate(36.888 26.627)"/><rect class="h" width="2.048" height="2.048" transform="translate(6.154 24.579)"/><rect class="p" width="2.048" height="2.048" transform="translate(8.202 24.579)"/><rect class="s" width="2.048" height="2.048" transform="translate(10.249 24.579)"/><rect class="k" width="2.048" height="2.048" transform="translate(18.441 24.579)"/><rect class="q" width="2.048" height="2.048" transform="translate(20.489 24.579)"/><rect class="t" width="2.048" height="2.048" transform="translate(22.537 24.579)"/><rect class="n" width="2.048" height="2.048" transform="translate(30.728 24.579)"/><rect class="o" width="2.048" height="2.048" transform="translate(32.776 24.579)"/><rect class="a" width="2.048" height="2.048" transform="translate(36.882 24.579)"/><rect class="b" width="2.048" height="2.048" transform="translate(38.93 24.579)"/><rect class="c" width="2.048" height="2.048" transform="translate(40.978 24.579)"/><rect class="d" width="2.048" height="2.048" transform="translate(43.026 24.579)"/><rect class="r" width="2.048" height="2.048" transform="translate(45.074 24.579)"/><rect class="u" width="2.048" height="2.048" transform="translate(47.122 24.579)"/><rect class="e" width="2.048" height="2.048" transform="translate(34.833 24.579)"/><rect class="f" width="2.048" height="2.048" transform="translate(0.004 22.53)"/><rect class="g" width="2.048" height="2.048" transform="translate(2.052 22.53)"/><rect class="h" width="2.048" height="2.048" transform="translate(4.099 22.53)"/><rect class="p" width="2.048" height="2.048" transform="translate(6.147 22.53)"/><rect class="s" width="2.048" height="2.048" transform="translate(8.195 22.53)"/><rect class="v" width="2.048" height="2.048" transform="translate(10.243 22.53)"/><rect class="i" width="2.048" height="2.048" transform="translate(12.291 22.53)"/><rect class="j" width="2.048" height="2.048" transform="translate(14.339 22.53)"/><rect class="k" width="2.048" height="2.048" transform="translate(16.387 22.53)"/><rect class="q" width="2.048" height="2.048" transform="translate(18.435 22.53)"/><rect class="t" width="2.048" height="2.048" transform="translate(20.483 22.53)"/><rect class="w" width="2.048" height="2.048" transform="translate(22.53 22.53)"/><rect class="l" width="2.048" height="2.048" transform="translate(24.578 22.53)"/><rect class="m" width="2.048" height="2.048" transform="translate(26.626 22.53)"/><rect class="n" width="2.048" height="2.048" transform="translate(28.674 22.53)"/><rect class="b" width="2.048" height="2.048" transform="translate(36.876 22.53)"/><rect class="c" width="2.048" height="2.048" transform="translate(38.924 22.53)"/><rect class="d" width="2.048" height="2.048" transform="translate(40.972 22.53)"/><rect class="g" width="1.667" height="1.667" transform="translate(0.167 20.718)"/><rect class="h" width="2.501" height="1.667" transform="translate(1.835 20.718)"/><rect class="p" width="1.667" height="1.667" transform="translate(4.336 20.718)"/><rect class="s" width="2.501" height="1.667" transform="translate(6.003 20.718)"/><rect class="v" width="1.667" height="1.667" transform="translate(8.504 20.718)"/><rect class="i" width="2.501" height="1.667" transform="translate(10.172 20.718)"/><rect class="j" width="1.667" height="1.667" transform="translate(12.673 20.718)"/><rect class="k" width="2.048" height="2.048" transform="translate(14.333 20.482)"/><rect class="q" width="2.048" height="2.048" transform="translate(16.38 20.482)"/><rect class="t" width="2.048" height="2.048" transform="translate(18.428 20.482)"/><rect class="w" width="2.048" height="2.048" transform="translate(20.476 20.482)"/><rect class="l" width="2.048" height="2.048" transform="translate(22.524 20.482)"/><rect class="m" width="2.048" height="2.048" transform="translate(24.572 20.482)"/><rect class="n" width="2.048" height="2.048" transform="translate(26.62 20.482)"/><rect class="o" width="2.048" height="2.048" transform="translate(28.668 20.482)"/><rect class="c" width="2.048" height="2.048" transform="translate(36.869 20.482)"/><rect class="d" width="2.048" height="2.048" transform="translate(38.917 20.482)"/><rect class="r" width="2.048" height="2.048" transform="translate(40.965 20.482)"/><rect class="h" width="2.048" height="2.048" transform="translate(0 18.434)"/><rect class="p" width="2.048" height="2.048" transform="translate(2.048 18.434)"/><rect class="s" width="2.048" height="2.048" transform="translate(4.096 18.434)"/><rect class="v" width="2.501" height="2.501" transform="translate(6.003 18.217)"/><rect class="i" width="1.667" height="2.501" transform="translate(8.504 18.217)"/><rect class="j" width="2.501" height="2.501" transform="translate(10.172 18.217)"/><rect class="k" width="1.667" height="2.501" transform="translate(12.673 18.217)"/><rect class="q" width="1.667" height="2.501" transform="translate(14.34 18.217)"/><rect class="t" width="2.501" height="2.501" transform="translate(16.008 18.217)"/><rect class="w" width="1.667" height="2.501" transform="translate(18.509 18.217)"/><rect class="l" width="2.501" height="2.501" transform="translate(20.176 18.217)"/><rect class="m" width="1.667" height="2.501" transform="translate(22.678 18.217)"/><rect class="n" width="2.501" height="2.501" transform="translate(24.345 18.217)"/><rect class="o" width="1.667" height="2.501" transform="translate(26.846 18.217)"/><rect class="d" width="2.048" height="2.048" transform="translate(36.872 18.434)"/><rect class="r" width="2.048" height="2.048" transform="translate(38.92 18.434)"/><rect class="u" width="2.048" height="2.048" transform="translate(40.968 18.434)"/><rect class="e" width="2.048" height="2.048" transform="translate(28.68 18.434)"/><rect class="i" width="2.048" height="2.048" transform="translate(6.137 16.386)"/><rect class="j" width="2.048" height="2.048" transform="translate(8.185 16.386)"/><rect class="k" width="2.048" height="2.048" transform="translate(10.233 16.386)"/><rect class="l" width="2.048" height="2.048" transform="translate(18.425 16.386)"/><rect class="m" width="2.048" height="2.048" transform="translate(20.473 16.386)"/><rect class="n" width="2.048" height="2.048" transform="translate(22.52 16.386)"/><rect class="r" width="1.667" height="1.667" transform="translate(36.851 16.55)"/><rect class="u" width="2.501" height="1.667" transform="translate(38.518 16.55)"/><rect class="x" width="1.667" height="1.667" transform="translate(41.019 16.55)"/><rect class="j" width="2.048" height="2.048" transform="translate(6.149 14.337)"/><rect class="k" width="2.048" height="2.048" transform="translate(8.197 14.337)"/><rect class="q" width="2.048" height="2.048" transform="translate(10.245 14.337)"/><rect class="m" width="2.048" height="2.048" transform="translate(18.437 14.337)"/><rect class="n" width="2.048" height="2.048" transform="translate(20.484 14.337)"/><rect class="o" width="2.048" height="2.048" transform="translate(22.532 14.337)"/><rect class="u" width="2.048" height="2.048" transform="translate(36.878 14.337)"/><rect class="x" width="2.048" height="2.048" transform="translate(38.925 14.337)"/><rect class="y" width="2.048" height="2.048" transform="translate(40.973 14.337)"/><rect class="k" width="2.048" height="2.048" transform="translate(6.152 12.289)"/><rect class="q" width="2.048" height="2.048" transform="translate(8.2 12.289)"/><rect class="t" width="2.048" height="2.048" transform="translate(10.248 12.289)"/><rect class="n" width="2.048" height="2.048" transform="translate(18.439 12.289)"/><rect class="o" width="2.048" height="2.048" transform="translate(20.487 12.289)"/><rect class="x" width="2.048" height="2.048" transform="translate(36.88 12.289)"/><rect class="y" width="2.048" height="2.048" transform="translate(38.928 12.289)"/><rect class="z" width="2.048" height="2.048" transform="translate(40.976 12.289)"/><rect class="e" width="2.048" height="2.048" transform="translate(22.544 12.289)"/><rect class="i" width="2.048" height="2.048" transform="translate(0.011 10.241)"/><rect class="j" width="2.048" height="2.048" transform="translate(2.059 10.241)"/><rect class="k" width="2.048" height="2.048" transform="translate(4.107 10.241)"/><rect class="q" width="2.048" height="2.048" transform="translate(6.155 10.241)"/><rect class="t" width="2.048" height="2.048" transform="translate(8.202 10.241)"/><rect class="w" width="2.048" height="2.048" transform="translate(10.25 10.241)"/><rect class="l" width="2.048" height="2.048" transform="translate(12.298 10.241)"/><rect class="m" width="2.048" height="2.048" transform="translate(14.346 10.241)"/><rect class="n" width="2.048" height="2.048" transform="translate(16.394 10.241)"/><rect class="o" width="2.048" height="2.048" transform="translate(18.442 10.241)"/><rect class="a" width="2.048" height="2.048" transform="translate(22.548 10.241)"/><rect class="b" width="2.048" height="2.048" transform="translate(24.596 10.241)"/><rect class="c" width="2.048" height="2.048" transform="translate(26.644 10.241)"/><rect class="d" width="2.048" height="2.048" transform="translate(28.691 10.241)"/><rect class="y" width="2.048" height="2.048" transform="translate(36.883 10.241)"/><rect class="z" width="2.048" height="2.048" transform="translate(38.931 10.241)"/><rect class="aa" width="2.048" height="2.048" transform="translate(40.979 10.241)"/><rect class="e" width="2.048" height="2.048" transform="translate(20.499 10.241)"/><rect class="j" width="2.048" height="2.048" transform="translate(0.014 8.193)"/><rect class="k" width="2.048" height="2.048" transform="translate(2.062 8.193)"/><rect class="q" width="2.048" height="2.048" transform="translate(4.109 8.193)"/><rect class="t" width="2.048" height="2.048" transform="translate(6.157 8.193)"/><rect class="w" width="2.048" height="2.048" transform="translate(8.205 8.193)"/><rect class="l" width="2.048" height="2.048" transform="translate(10.253 8.193)"/><rect class="m" width="2.048" height="2.048" transform="translate(12.301 8.193)"/><rect class="n" width="2.048" height="2.048" transform="translate(14.349 8.193)"/><rect class="o" width="2.048" height="2.048" transform="translate(16.397 8.193)"/><rect class="a" width="2.048" height="2.048" transform="translate(20.503 8.193)"/><rect class="b" width="2.048" height="2.048" transform="translate(22.55 8.193)"/><rect class="c" width="2.048" height="2.048" transform="translate(24.598 8.193)"/><rect class="d" width="2.048" height="2.048" transform="translate(26.646 8.193)"/><rect class="r" width="2.048" height="2.048" transform="translate(28.694 8.193)"/><rect class="z" width="2.048" height="2.048" transform="translate(36.886 8.193)"/><rect class="aa" width="2.048" height="2.048" transform="translate(38.934 8.193)"/><rect class="ab" width="2.048" height="2.048" transform="translate(40.982 8.193)"/><rect class="e" width="2.048" height="2.048" transform="translate(18.454 8.193)"/><rect class="k" width="2.048" height="2.048" transform="translate(0.016 6.145)"/><rect class="q" width="2.048" height="2.048" transform="translate(2.064 6.145)"/><rect class="t" width="2.048" height="2.048" transform="translate(4.112 6.145)"/><rect class="w" width="2.048" height="2.048" transform="translate(6.16 6.145)"/><rect class="l" width="2.048" height="2.048" transform="translate(8.208 6.145)"/><rect class="m" width="2.048" height="2.048" transform="translate(10.256 6.145)"/><rect class="n" width="2.048" height="2.048" transform="translate(12.304 6.145)"/><rect class="o" width="2.048" height="2.048" transform="translate(14.352 6.145)"/><rect class="a" width="2.048" height="2.048" transform="translate(18.457 6.145)"/><rect class="b" width="2.048" height="2.048" transform="translate(20.505 6.145)"/><rect class="c" width="2.048" height="2.048" transform="translate(22.553 6.145)"/><rect class="d" width="2.048" height="2.048" transform="translate(24.601 6.145)"/><rect class="r" width="2.048" height="2.048" transform="translate(26.649 6.145)"/><rect class="u" width="2.048" height="2.048" transform="translate(28.697 6.145)"/><rect class="aa" width="2.048" height="2.048" transform="translate(36.888 6.145)"/><rect class="ab" width="2.048" height="2.048" transform="translate(38.936 6.145)"/><rect class="ac" width="2.048" height="2.048" transform="translate(40.984 6.145)"/><rect class="e" width="2.048" height="2.048" transform="translate(16.409 6.145)"/><rect class="l" width="2.048" height="2.048" transform="translate(6.163 4.096)"/><rect class="m" width="2.048" height="2.048" transform="translate(8.211 4.096)"/><rect class="n" width="2.048" height="2.048" transform="translate(10.259 4.096)"/><rect class="b" width="2.048" height="2.048" transform="translate(18.46 4.096)"/><rect class="c" width="2.048" height="2.048" transform="translate(20.508 4.096)"/><rect class="d" width="2.048" height="2.048" transform="translate(22.556 4.096)"/><rect class="y" width="2.048" height="2.048" transform="translate(30.748 4.096)"/><rect class="z" width="2.048" height="2.048" transform="translate(32.795 4.096)"/><rect class="aa" width="2.048" height="2.048" transform="translate(34.843 4.096)"/><rect class="ab" width="2.048" height="2.048" transform="translate(36.891 4.096)"/><rect class="ac" width="2.048" height="2.048" transform="translate(38.939 4.096)"/><rect class="ad" width="2.048" height="2.048" transform="translate(40.987 4.096)"/><rect class="m" width="2.048" height="2.048" transform="translate(6.156 2.048)"/><rect class="n" width="2.048" height="2.048" transform="translate(8.204 2.048)"/><rect class="o" width="2.048" height="2.048" transform="translate(10.252 2.048)"/><rect class="c" width="2.048" height="2.048" transform="translate(18.454 2.048)"/><rect class="d" width="2.048" height="2.048" transform="translate(20.502 2.048)"/><rect class="r" width="2.048" height="2.048" transform="translate(22.55 2.048)"/><rect class="z" width="2.048" height="2.048" transform="translate(30.741 2.048)"/><rect class="aa" width="2.048" height="2.048" transform="translate(32.789 2.048)"/><rect class="ab" width="2.048" height="2.048" transform="translate(34.837 2.048)"/><rect class="ac" width="2.048" height="2.048" transform="translate(36.885 2.048)"/><rect class="ad" width="2.048" height="2.048" transform="translate(38.933 2.048)"/><rect class="ae" width="2.048" height="2.048" transform="translate(40.981 2.048)"/><rect class="n" width="2.048" height="2.048" transform="translate(6.159 0)"/><rect class="o" width="2.048" height="2.048" transform="translate(8.207 0)"/><rect class="d" width="2.048" height="2.048" transform="translate(18.457 0)"/><rect class="r" width="2.048" height="2.048" transform="translate(20.504 0)"/><rect class="u" width="2.048" height="2.048" transform="translate(22.552 0)"/><rect class="aa" width="2.048" height="2.048" transform="translate(30.744 0)"/><rect class="ab" width="2.048" height="2.048" transform="translate(32.792 0)"/><rect class="ac" width="2.048" height="2.048" transform="translate(34.84 0)"/><rect class="ad" width="2.048" height="2.048" transform="translate(36.888 0)"/><rect class="ae" width="2.048" height="2.048" transform="translate(38.935 0)"/><rect class="af" width="2.048" height="2.048" transform="translate(40.983 0)"/><rect class="e" width="2.048" height="2.048" transform="translate(10.264 0)"/></g><g transform="translate(0 0.008)"><path class="ag" d="M612.457,2511.637H618.6v-6.143H600.171v6.143h12.286Z" transform="translate(-477.274 -2505.495)"/><path class="ag" d="M570.179,2535.486v12.286h18.429v6.142h6.143v-12.285H576.322v-6.142Z" transform="translate(-453.425 -2529.342)"/><path class="ag" d="M576.322,2625.462h-6.143v6.142h18.429v-6.142H576.322Z" transform="translate(-453.425 -2600.89)"/><path class="ag" d="M6.29,2505.495H.147v6.143H12.433v24.571h6.143v-30.714H6.29Z" transform="translate(-0.147 -2505.495)"/><path class="ag" d="M138.543,2511.637v6.143H126.257v-12.285h-6.143v30.714h6.143v-12.286h12.286v12.286h6.143v-30.714h-6.143Z" transform="translate(-95.542 -2505.495)"/><path class="ag" d="M270.073,2511.637v24.571h6.143v-30.714h-6.143Z" transform="translate(-214.787 -2505.495)"/><path class="ag" d="M366.192,2505.495h-6.143v6.143h18.429v-6.143H366.192Z" transform="translate(-286.334 -2505.495)"/><path class="ag" d="M510.008,2511.637v24.571h6.143v-30.714h-6.143Z" transform="translate(-405.578 -2505.495)"/><path class="ag" d="M330.057,2541.628v6.144h18.429v6.142h6.143v-12.285H336.2v-6.142h-6.143Z" transform="translate(-262.485 -2529.342)"/><path class="ag" d="M336.2,2625.462h-6.143v6.142h18.429v-6.142H336.2Z" transform="translate(-262.485 -2600.89)"/></g></svg>